<mxfile host="app.diagrams.net" modified="2024-02-04T09:34:47.392Z" agent="Mozilla/5.0 (Macintosh; Intel Mac OS X 10_15_7) AppleWebKit/537.36 (KHTML, like Gecko) Chrome/120.0.0.0 Safari/537.36" version="23.1.1" etag="BNrEdNDdj9-tLo6sXfZh" type="github">
  <diagram name="第 1 页" id="J7SEZp5DD6yJSpMA-k06">
    <mxGraphModel>
      <root>
        <mxCell id="0" />
        <mxCell id="1" parent="0" />
      </root>
    </mxGraphModel>
  </diagram>
</mxfile>
